<?xml version="1.0" encoding="UTF-8" standalone="no"?>
<!-- Created with Inkscape (http://www.inkscape.org/) -->

<svg
   xmlns:dc="http://purl.org/dc/elements/1.1/"
   xmlns:cc="http://creativecommons.org/ns#"
   xmlns:rdf="http://www.w3.org/1999/02/22-rdf-syntax-ns#"
   xmlns:svg="http://www.w3.org/2000/svg"
   xmlns="http://www.w3.org/2000/svg"
   xmlns:sodipodi="http://sodipodi.sourceforge.net/DTD/sodipodi-0.dtd"
   xmlns:inkscape="http://www.inkscape.org/namespaces/inkscape"
   version="1.1"
   id="svg2"
   width="32"
   height="32"
   viewBox="0 0 32 32"
   sodipodi:docname="favicon.svg"
   inkscape:version="0.92.4 (5da689c313, 2019-01-14)">
  <metadata
     id="metadata8">
    <rdf:RDF>
      <cc:Work
         rdf:about="">
        <dc:format>image/svg+xml</dc:format>
        <dc:type
           rdf:resource="http://purl.org/dc/dcmitype/StillImage" />
        <dc:title></dc:title>
      </cc:Work>
    </rdf:RDF>
  </metadata>
  <defs
     id="defs6" />
  <sodipodi:namedview
     pagecolor="#ffffff"
     bordercolor="#666666"
     borderopacity="1"
     objecttolerance="10"
     gridtolerance="10"
     guidetolerance="10"
     inkscape:pageopacity="0"
     inkscape:pageshadow="2"
     inkscape:window-width="1600"
     inkscape:window-height="877"
     id="namedview4"
     showgrid="false"
     inkscape:zoom="10.429825"
     inkscape:cx="18.366117"
     inkscape:cy="16.226938"
     inkscape:window-x="-8"
     inkscape:window-y="-8"
     inkscape:window-maximized="1"
     inkscape:current-layer="svg2" />
  <path
     style="opacity:1;fill:#d40000;fill-opacity:1;stroke:none;stroke-width:0.09587888;stroke-miterlimit:4;stroke-dasharray:none;stroke-opacity:1"
     d="m 8.7974044,30.656887 c -1.429799,-0.311095 -3.071206,-1.636799 -3.715285,-3.000699 -0.32143,-0.68066 -0.355143,-0.828496 -0.357246,-1.566558 -0.0022,-0.766887 0.01624,-0.841707 0.312343,-1.268145 0.173066,-0.249247 0.515605,-0.570935 0.761199,-0.714862 1.183113,-0.693351 3.051234,0.0066 3.768164,1.411937 0.390647,0.76573 0.188965,1.6084 -0.50532,2.111338 -0.523095,0.378928 -0.95928,0.501416 -1.61632,0.453891 -0.433488,-0.03136 -0.565113,-0.0104 -0.565113,0.08998 0,0.22574 0.690669,0.784889 1.417044,1.147204 0.560519,0.279587 0.807056,0.348139 1.25203,0.348139 1.0318556,0 1.9723216,-0.748652 2.5092596,-1.997477 0.241392,-0.561437 0.868031,-3.084759 0.806126,-3.246078 -0.02332,-0.06076 -0.268363,-0.23616 -0.544546,-0.389768 -2.3765046,-1.321771 -4.1307496,-3.4893 -4.7857486,-5.913231 -0.440938,-1.631765 -0.207624,-3.54425 0.596053,-4.885855 0.390745,-0.652285 1.491044,-1.797314 2.2493616,-2.340804 1.485745,-1.0648424 4.590079,-2.1703061 6.567703,-2.3387812 l 0.719092,-0.06126 0.252947,-1.0078413 c 0.773821,-3.0832028 2.076152,-4.7176719 4.404057,-5.5272372 3.081583,-1.07166893 4.660256,0.6490014 3.55019,3.8695213 -0.984337,2.8557529 -3.400309,5.0764454 -6.385495,5.8693614 -1.604278,0.426125 -1.461643,0.353142 -1.565006,0.800766 -0.05155,0.223222 -0.205894,0.769412 -0.342995,1.213756 -0.37025,1.19998 -0.358875,1.255446 0.35252,1.718939 0.881004,0.573996 1.425963,1.203474 1.962709,2.267108 0.851063,1.686495 0.798068,3.241248 -0.161448,4.736524 -1.038401,1.618208 -3.359071,2.743441 -5.032486,2.440125 -0.533458,-0.09669 -0.539524,-0.09517 -0.598732,0.15005 -0.705965,2.923905 -0.984973,3.655164 -1.711492,4.485683 -0.472868,0.54056 -1.298669,1.01363 -2.040253,1.168785 -0.6149966,0.128669 -0.8676306,0.124684 -1.5533126,-0.02451 z m 7.6196316,-7.399148 c 1.02875,-0.602887 1.582168,-1.476613 1.583804,-2.500474 7.67e-4,-0.477853 -0.06019,-0.708509 -0.32938,-1.246426 -0.381066,-0.761474 -1.233339,-1.766576 -1.372702,-1.618853 -0.04975,0.05273 -0.340114,1.001934 -0.645255,2.109335 -0.305141,1.107401 -0.655341,2.37511 -0.778222,2.817132 l -0.22342,0.803674 0.651202,-0.04659 c 0.48389,-0.03462 0.770103,-0.116274 1.113973,-0.317795 z m -2.388441,-2.585266 c 0.385682,-1.371068 0.767408,-2.706245 0.848281,-2.967062 0.08087,-0.260816 0.12295,-0.498117 0.09351,-0.527334 -0.02945,-0.02922 -0.307232,-0.0484 -0.617306,-0.04262 -0.414897,0.0077 -0.710168,0.08368 -1.118173,0.287637 -0.473542,0.236712 -0.592861,0.353059 -0.818071,0.797689 -0.356423,0.703685 -0.363291,1.540969 -0.02012,2.452692 0.133951,0.355876 0.228332,0.692694 0.209735,0.748485 -0.05102,0.153054 -0.799328,-0.637104 -1.220532,-1.288787 -0.774446,-1.19822 -0.928832,-2.399862 -0.433989,-3.377901 0.759767,-1.501655 2.070546,-2.266988 3.882649,-2.266988 0.609602,0 0.87377,-0.03753 0.955241,-0.13569 0.146022,-0.175946 0.66843,-1.995657 0.604503,-2.105677 -0.08923,-0.153572 -1.873139,0.01216 -2.850911,0.264857 -1.331208,0.344042 -2.362632,0.874386 -3.189637,1.640066 -0.8243266,0.7632 -1.2132086,1.332175 -1.4627836,2.140205 -0.51329,1.66184 0.01973,3.462387 1.4761156,4.986372 0.733056,0.767079 2.510186,1.967367 2.828581,1.910446 0.08513,-0.01522 0.379512,-0.904598 0.83291,-2.516391 z M 21.134046,8.0270288 c 1.983565,-0.6605874 3.569669,-2.0807507 3.577147,-3.2028994 0.0061,-0.9184875 -1.472633,-1.1928493 -2.638614,-0.4895573 -0.591852,0.3569911 -1.534964,1.2149953 -1.833928,1.6684318 -0.190281,0.2885988 -0.990449,2.1672267 -0.990449,2.3253695 0,0.1400881 1.077198,-0.03204 1.885844,-0.3013446 z"
     id="path828"
     inkscape:connector-curvature="0" />
</svg>
