<?xml version="1.0" encoding="UTF-8" standalone="no"?>
<!-- Generator: Adobe Illustrator 16.0.0, SVG Export Plug-In . SVG Version: 6.00 Build 0)  -->

<svg
   xmlns:dc="http://purl.org/dc/elements/1.1/"
   xmlns:cc="http://creativecommons.org/ns#"
   xmlns:rdf="http://www.w3.org/1999/02/22-rdf-syntax-ns#"
   xmlns:svg="http://www.w3.org/2000/svg"
   xmlns="http://www.w3.org/2000/svg"
   xmlns:sodipodi="http://sodipodi.sourceforge.net/DTD/sodipodi-0.dtd"
   xmlns:inkscape="http://www.inkscape.org/namespaces/inkscape"
   version="1.1"
   x="0px"
   y="0px"
   width="300"
   height="150"
   viewBox="0 0 300 150"
   enable-background="new 0 0 116.625 49.959"
   xml:space="preserve"
   id="svg185"
   sodipodi:docname="logo.svg"
   inkscape:version="0.92.4 (5da689c313, 2019-01-14)"><metadata
   id="metadata191"><rdf:RDF><cc:Work
       rdf:about=""><dc:format>image/svg+xml</dc:format><dc:type
         rdf:resource="http://purl.org/dc/dcmitype/StillImage" /><dc:title></dc:title></cc:Work></rdf:RDF></metadata><defs
   id="defs189"><clipPath
   clipPathUnits="userSpaceOnUse"
   id="clipPath126"><g
     id="g132"
     transform="translate(-0.7652559,-0.15305118)"><rect
       y="-1.1600937"
       x="-1.5305121"
       height="51.578247"
       width="58.924706"
       id="rect128"
       style="fill:#0000ff;fill-rule:evenodd" /><rect
       y="-4.986372"
       x="54.180119"
       height="37.803642"
       width="64.740646"
       id="rect130"
       style="fill:#0000ff;fill-rule:evenodd" /></g></clipPath>

	
	
	

		
		
	
		<linearGradient
   id="SVGID_1_"
   gradientUnits="userSpaceOnUse"
   x1="-9.2529001"
   y1="22.294901"
   x2="93.085197"
   y2="22.294901"
   gradientTransform="translate(1.0713583,1.5305118)">
			<stop
   offset="0"
   style="stop-color:#FF1244"
   id="stop3" />
			<stop
   offset="0.5025"
   style="stop-color:#5B78E6"
   id="stop5" />
			<stop
   offset="0.558"
   style="stop-color:#4C8BEA"
   id="stop7" />
			<stop
   offset="0.6959"
   style="stop-color:#2BB6F3"
   id="stop9" />
			<stop
   offset="0.8204"
   style="stop-color:#14D5FA"
   id="stop11" />
			<stop
   offset="0.926"
   style="stop-color:#05E7FE"
   id="stop13" />
			<stop
   offset="1"
   style="stop-color:#00EEFF"
   id="stop15" />
		</linearGradient>
		
		<linearGradient
   id="SVGID_2_"
   gradientUnits="userSpaceOnUse"
   x1="-9.2553997"
   y1="25.1245"
   x2="93.100403"
   y2="25.1245"
   gradientTransform="translate(1.0713583,1.5305118)">
			<stop
   offset="0"
   style="stop-color:#FF1244"
   id="stop20" />
			<stop
   offset="0.5025"
   style="stop-color:#5B78E6"
   id="stop22" />
			<stop
   offset="0.558"
   style="stop-color:#4C8BEA"
   id="stop24" />
			<stop
   offset="0.6959"
   style="stop-color:#2BB6F3"
   id="stop26" />
			<stop
   offset="0.8204"
   style="stop-color:#14D5FA"
   id="stop28" />
			<stop
   offset="0.926"
   style="stop-color:#05E7FE"
   id="stop30" />
			<stop
   offset="1"
   style="stop-color:#00EEFF"
   id="stop32" />
		</linearGradient>
		
		<linearGradient
   id="SVGID_3_"
   gradientUnits="userSpaceOnUse"
   x1="-9.2524004"
   y1="21.378401"
   x2="93.085701"
   y2="21.378401"
   gradientTransform="translate(1.0713583,1.5305118)">
			<stop
   offset="0"
   style="stop-color:#FF1244"
   id="stop37" />
			<stop
   offset="0.5025"
   style="stop-color:#5B78E6"
   id="stop39" />
			<stop
   offset="0.558"
   style="stop-color:#4C8BEA"
   id="stop41" />
			<stop
   offset="0.6959"
   style="stop-color:#2BB6F3"
   id="stop43" />
			<stop
   offset="0.8204"
   style="stop-color:#14D5FA"
   id="stop45" />
			<stop
   offset="0.926"
   style="stop-color:#05E7FE"
   id="stop47" />
			<stop
   offset="1"
   style="stop-color:#00EEFF"
   id="stop49" />
		</linearGradient>
		
		<linearGradient
   id="SVGID_4_"
   gradientUnits="userSpaceOnUse"
   x1="-9.2549"
   y1="27.7817"
   x2="93.090897"
   y2="27.7817"
   gradientTransform="translate(1.0713583,1.5305118)">
			<stop
   offset="0"
   style="stop-color:#FF1244"
   id="stop54" />
			<stop
   offset="0.5025"
   style="stop-color:#5B78E6"
   id="stop56" />
			<stop
   offset="0.558"
   style="stop-color:#4C8BEA"
   id="stop58" />
			<stop
   offset="0.6959"
   style="stop-color:#2BB6F3"
   id="stop60" />
			<stop
   offset="0.8204"
   style="stop-color:#14D5FA"
   id="stop62" />
			<stop
   offset="0.926"
   style="stop-color:#05E7FE"
   id="stop64" />
			<stop
   offset="1"
   style="stop-color:#00EEFF"
   id="stop66" />
		</linearGradient>
		
		<linearGradient
   id="SVGID_5_"
   gradientUnits="userSpaceOnUse"
   x1="-9.2665997"
   y1="25.125"
   x2="93.096901"
   y2="25.125"
   gradientTransform="translate(1.0713583,1.5305118)">
			<stop
   offset="0"
   style="stop-color:#FF1244"
   id="stop71" />
			<stop
   offset="0.5025"
   style="stop-color:#5B78E6"
   id="stop73" />
			<stop
   offset="0.558"
   style="stop-color:#4C8BEA"
   id="stop75" />
			<stop
   offset="0.6959"
   style="stop-color:#2BB6F3"
   id="stop77" />
			<stop
   offset="0.8204"
   style="stop-color:#14D5FA"
   id="stop79" />
			<stop
   offset="0.926"
   style="stop-color:#05E7FE"
   id="stop81" />
			<stop
   offset="1"
   style="stop-color:#00EEFF"
   id="stop83" />
		</linearGradient>
		
		<linearGradient
   id="SVGID_6_"
   gradientUnits="userSpaceOnUse"
   x1="-9.2538996"
   y1="25.125"
   x2="93.091904"
   y2="25.125"
   gradientTransform="translate(1.0713583,1.5305118)">
			<stop
   offset="0"
   style="stop-color:#2b0000;stop-opacity:1"
   id="stop88" />
			<stop
   offset="0.5025"
   style="stop-color:#5B78E6"
   id="stop90" />
			<stop
   offset="0.558"
   style="stop-color:#4C8BEA"
   id="stop92" />
			<stop
   offset="0.6959"
   style="stop-color:#2BB6F3"
   id="stop94" />
			<stop
   offset="0.8204"
   style="stop-color:#14D5FA"
   id="stop96" />
			<stop
   offset="0.926"
   style="stop-color:#05E7FE"
   id="stop98" />
			<stop
   offset="1"
   style="stop-color:#ffd5d5;stop-opacity:1"
   id="stop100" />
		</linearGradient>
		
		<linearGradient
   id="SVGID_7_"
   gradientUnits="userSpaceOnUse"
   x1="-9.2587996"
   y1="21.929701"
   x2="93.095901"
   y2="21.929701"
   gradientTransform="translate(1.0713583,1.5305118)">
			<stop
   offset="0"
   style="stop-color:#FF1244"
   id="stop105" />
			<stop
   offset="0.5025"
   style="stop-color:#5B78E6"
   id="stop107" />
			<stop
   offset="0.558"
   style="stop-color:#4C8BEA"
   id="stop109" />
			<stop
   offset="0.6959"
   style="stop-color:#2BB6F3"
   id="stop111" />
			<stop
   offset="0.8204"
   style="stop-color:#14D5FA"
   id="stop113" />
			<stop
   offset="0.926"
   style="stop-color:#05E7FE"
   id="stop115" />
			<stop
   offset="1"
   style="stop-color:#00EEFF"
   id="stop117" />
		</linearGradient>
		
		<linearGradient
   id="SVGID_8_"
   gradientUnits="userSpaceOnUse"
   x1="-9.2544003"
   y1="20.789101"
   x2="93.0914"
   y2="20.789101"
   gradientTransform="translate(1.0713583,1.5305118)">
			<stop
   offset="0"
   style="stop-color:#FF1244"
   id="stop122" />
			<stop
   offset="0.5025"
   style="stop-color:#5B78E6"
   id="stop124" />
			<stop
   offset="0.558"
   style="stop-color:#4C8BEA"
   id="stop126" />
			<stop
   offset="0.6959"
   style="stop-color:#2BB6F3"
   id="stop128" />
			<stop
   offset="0.8204"
   style="stop-color:#14D5FA"
   id="stop130" />
			<stop
   offset="0.926"
   style="stop-color:#05E7FE"
   id="stop132" />
			<stop
   offset="1"
   style="stop-color:#00EEFF"
   id="stop134" />
		</linearGradient>
		
		<linearGradient
   id="SVGID_9_"
   gradientUnits="userSpaceOnUse"
   x1="-9.2544003"
   y1="25.1245"
   x2="93.092598"
   y2="25.1245"
   gradientTransform="translate(1.0713583,1.5305118)">
			<stop
   offset="0"
   style="stop-color:#FF1244"
   id="stop139" />
			<stop
   offset="0.5025"
   style="stop-color:#5B78E6"
   id="stop141" />
			<stop
   offset="0.558"
   style="stop-color:#4C8BEA"
   id="stop143" />
			<stop
   offset="0.6959"
   style="stop-color:#2BB6F3"
   id="stop145" />
			<stop
   offset="0.8204"
   style="stop-color:#14D5FA"
   id="stop147" />
			<stop
   offset="0.926"
   style="stop-color:#05E7FE"
   id="stop149" />
			<stop
   offset="1"
   style="stop-color:#00EEFF"
   id="stop151" />
		</linearGradient>
		
	</defs><sodipodi:namedview
   pagecolor="#ffffff"
   bordercolor="#666666"
   borderopacity="1"
   objecttolerance="10"
   gridtolerance="10"
   guidetolerance="10"
   inkscape:pageopacity="0"
   inkscape:pageshadow="2"
   inkscape:window-width="1600"
   inkscape:window-height="877"
   id="namedview187"
   showgrid="false"
   inkscape:zoom="2.3100337"
   inkscape:cx="102.43642"
   inkscape:cy="91.314501"
   inkscape:window-x="-8"
   inkscape:window-y="-8"
   inkscape:window-maximized="1"
   inkscape:current-layer="svg185" />
<g
   id="Layer_1"
   transform="translate(0,100.041)">
</g>



<path
   d="m 32.335108,83.932847 v 0 c -4.07285,0 -7.40756,-3.332088 -7.40756,-7.407569 V 61.011291 c 0,-4.072856 3.33471,-7.407566 7.40756,-7.407566 v 0 c 4.075468,0 7.407562,3.33471 7.407562,7.407566 v 15.513987 c 0,4.075481 -3.332094,7.407569 -7.407562,7.407569 z"
   id="path18"
   style="fill:#800000;stroke-width:2.6175127"
   inkscape:connector-curvature="0" /><path
   d="m 10.481496,68.766982 v 0 c -4.0754676,0 -7.4075613,3.334708 -7.4075613,7.410168 v 0 c 0,4.075482 3.3320937,7.404948 7.4075613,7.404948 v 0 c 4.075467,0 7.410179,-3.329466 7.410179,-7.404948 v 0 c -0.0026,-4.07546 -3.33733,-7.410168 -7.410179,-7.410168 z"
   id="path35"
   style="fill:#550000;stroke-width:2.6175127"
   inkscape:connector-curvature="0" /><path
   d="m 53.890327,99.083007 v 0 c -4.07285,0 -7.407562,-3.33208 -7.407562,-7.40756 V 41.065839 c 0,-4.075468 3.334712,-7.41018 7.407562,-7.41018 v 0 c 4.075467,0 7.407561,3.332095 7.407561,7.41018 v 50.607002 c 0,4.078086 -3.334712,7.410166 -7.407561,7.410166 z"
   id="path52"
   style="fill:#aa0000;stroke-width:2.6175127"
   inkscape:connector-curvature="0" /><path
   d="m 75.445543,108.06894 v 0 c -4.075466,0 -7.410177,-3.33209 -7.410177,-7.41017 V 65.599792 c 0,-4.075476 3.332093,-7.407563 7.410177,-7.407563 v 0 c 4.075468,0 7.407562,3.332087 7.407562,7.407563 v 35.058978 c 0,4.07808 -3.332094,7.41017 -7.407562,7.41017 z"
   id="path69"
   style="fill:#d40000;stroke-width:2.6175127"
   inkscape:connector-curvature="0" /><path
   d="m 161.6638,91.34041 v 0 c 4.07547,0 7.41018,-3.332088 7.41018,-7.407563 V 68.418854 c 0,-4.072854 -3.33209,-7.407563 -7.41018,-7.407563 v 0 c -4.07546,0 -7.41017,3.334709 -7.41017,7.407563 v 15.513993 c 0,4.078096 3.33471,7.407563 7.41017,7.407563 z"
   id="path86"
   style="fill:#ff5555;stroke-width:2.6175127"
   inkscape:connector-curvature="0" /><path
   d="m 140.1112,118.69603 v 0 c 4.07285,0 7.40756,-3.33208 7.40756,-7.40754 V 41.065839 c 0,-4.075468 -3.33471,-7.41018 -7.40756,-7.41018 v 0 c -4.07547,0 -7.40756,3.332095 -7.40756,7.41018 v 70.222651 c 0,4.07546 3.33209,7.40754 7.40756,7.40754 z"
   id="path103"
   style="fill:#ff5555;stroke-width:2.6175127"
   inkscape:connector-curvature="0" /><path
   d="m 118.29161,91.34041 h 0.52874 c 3.92627,0 7.14319,-3.216914 7.14319,-7.143188 V 51.431189 c 0,-3.928887 -3.21692,-7.143192 -7.14319,-7.143192 h -0.52874 c -3.92888,0 -7.14319,3.216923 -7.14319,7.143192 v 32.766033 c 0,3.92888 3.21431,7.143188 7.14319,7.143188 z"
   id="path120"
   style="fill:#ff2a2a;stroke-width:2.6175127"
   inkscape:connector-curvature="0" /><path
   d="m 97.000762,118.69603 v 0 c -4.075468,0 -7.407562,-3.33208 -7.407562,-7.40754 V 18.366767 c 0,-4.072849 3.332094,-7.407561 7.407562,-7.407561 v 0 c 4.072848,0 7.407568,3.334712 7.407568,7.407561 v 92.921723 c 0,4.07546 -3.33472,7.40754 -7.407568,7.40754 z"
   id="path137"
   style="fill:#ff0000;stroke-width:2.6175127"
   inkscape:connector-curvature="0" /><path
   d="m 182.88136,83.584719 v 0 c 4.07547,0 7.41018,-3.329466 7.41018,-7.404948 v 0 c 0,-4.07546 -3.33471,-7.410184 -7.41018,-7.410184 v 0 c -4.07286,0 -7.40756,3.334724 -7.40756,7.410184 v 0 c 0,4.072861 3.3347,7.404948 7.40756,7.404948 z"
   id="path154"
   style="fill:#ff8080;stroke-width:2.6175127"
   inkscape:connector-curvature="0" /><path
   d="m 289.74395,41.667291 c 0,13.493278 -12.30494,24.429242 -27.48389,24.429242 h -44.49771 c -15.17896,0 -27.48388,-10.938582 -27.48388,-24.429242 v 0 c 0,-13.493279 12.30492,-24.429247 27.48388,-24.429247 h 44.49771 c 15.17895,0 27.48389,10.935968 27.48389,24.429247 z"
   id="path172"
   inkscape:connector-curvature="0"
   style="fill:#800000;stroke-width:2.6175127" /><g
   id="g180"
   transform="matrix(2.6175127,0,0,2.6175127,-13.259335,-14.826494)">
			<path
   d="m 90.807,23.593 c -0.035,-0.172 -0.063,-0.326 -0.082,-0.463 -0.019,-0.137 -0.033,-0.273 -0.041,-0.41 -0.223,0.285 -0.501,0.522 -0.835,0.712 -0.334,0.19 -0.69,0.284 -1.069,0.284 -0.66,0 -1.162,-0.161 -1.506,-0.483 -0.344,-0.322 -0.516,-0.776 -0.516,-1.362 0,-0.602 0.243,-1.065 0.729,-1.392 0.486,-0.327 1.153,-0.489 2.001,-0.489 h 1.189 v -0.738 c 0,-0.371 -0.117,-0.665 -0.352,-0.882 -0.235,-0.217 -0.561,-0.325 -0.979,-0.325 -0.289,0 -0.544,0.037 -0.765,0.111 -0.221,0.074 -0.399,0.176 -0.536,0.305 l -0.123,0.668 h -0.891 v -1.23 c 0.289,-0.23 0.639,-0.415 1.049,-0.554 0.41,-0.139 0.855,-0.208 1.336,-0.208 0.719,0 1.301,0.184 1.746,0.551 0.445,0.367 0.668,0.893 0.668,1.576 v 3.053 c 0,0.082 0.001,0.162 0.003,0.24 0.002,0.078 0.007,0.156 0.015,0.234 l 0.469,0.064 v 0.738 z m -1.858,-0.844 c 0.383,0 0.732,-0.092 1.049,-0.275 0.317,-0.183 0.543,-0.404 0.68,-0.662 v -1.043 h -1.23 c -0.473,0 -0.847,0.109 -1.122,0.328 -0.275,0.219 -0.413,0.484 -0.413,0.797 0,0.277 0.086,0.489 0.258,0.636 0.172,0.147 0.431,0.219 0.778,0.219 z"
   id="path174"
   inkscape:connector-curvature="0"
   style="fill:#ffffff" />
			<path
   d="m 93.139,25.286 0.955,-0.164 v -6.961 l -0.955,-0.164 v -0.744 h 1.945 l 0.105,0.773 c 0.211,-0.289 0.468,-0.51 0.771,-0.662 0.303,-0.152 0.653,-0.229 1.052,-0.229 0.785,0 1.396,0.312 1.831,0.935 0.435,0.623 0.653,1.446 0.653,2.47 v 0.123 c 0,0.914 -0.219,1.651 -0.656,2.212 -0.437,0.561 -1.041,0.841 -1.811,0.841 -0.391,0 -0.733,-0.065 -1.028,-0.196 -0.295,-0.131 -0.546,-0.325 -0.753,-0.583 v 2.186 l 0.955,0.164 v 0.744 h -3.064 z m 5.197,-4.746 c 0,-0.723 -0.141,-1.314 -0.422,-1.775 -0.281,-0.461 -0.699,-0.691 -1.254,-0.691 -0.328,0 -0.609,0.074 -0.844,0.223 -0.235,0.149 -0.424,0.352 -0.568,0.609 v 3.088 c 0.145,0.262 0.333,0.464 0.565,0.606 0.232,0.142 0.519,0.214 0.858,0.214 0.547,0 0.961,-0.199 1.242,-0.598 0.281,-0.399 0.422,-0.916 0.422,-1.553 V 20.54 Z"
   id="path176"
   inkscape:connector-curvature="0"
   style="fill:#ffffff" />
			<path
   d="m 100.404,25.286 0.955,-0.164 v -6.961 l -0.955,-0.164 v -0.744 h 1.945 l 0.105,0.773 c 0.211,-0.289 0.468,-0.51 0.771,-0.662 0.303,-0.152 0.653,-0.229 1.052,-0.229 0.785,0 1.396,0.312 1.831,0.935 0.435,0.623 0.653,1.446 0.653,2.47 v 0.123 c 0,0.914 -0.219,1.651 -0.656,2.212 -0.437,0.561 -1.041,0.841 -1.811,0.841 -0.391,0 -0.733,-0.065 -1.028,-0.196 -0.295,-0.131 -0.546,-0.325 -0.753,-0.583 v 2.186 l 0.955,0.164 v 0.744 h -3.064 z m 5.198,-4.746 c 0,-0.723 -0.141,-1.314 -0.422,-1.775 -0.281,-0.461 -0.699,-0.691 -1.254,-0.691 -0.328,0 -0.609,0.074 -0.844,0.223 -0.235,0.149 -0.424,0.352 -0.568,0.609 v 3.088 c 0.145,0.262 0.333,0.464 0.565,0.606 0.232,0.142 0.519,0.214 0.858,0.214 0.547,0 0.961,-0.199 1.242,-0.598 0.281,-0.399 0.422,-0.916 0.422,-1.553 V 20.54 Z"
   id="path178"
   inkscape:connector-curvature="0"
   style="fill:#ffffff" />
		</g><text
   xml:space="preserve"
   style="font-style:italic;font-variant:normal;font-weight:bold;font-stretch:normal;font-size:63.01974487px;line-height:1.25;font-family:Parisiene;-inkscape-font-specification:'Parisiene Bold Italic';letter-spacing:0px;word-spacing:0px;fill:#f2f2f2;fill-opacity:1;stroke:none;stroke-width:1.57549357"
   x="8.2512264"
   y="126.85281"
   id="text136"><tspan
     sodipodi:role="line"
     id="tspan134"
     x="8.2512264"
     y="126.85281"
     style="fill:#f2f2f2;stroke-width:1.57549357">GMUSIC</tspan></text>


</svg>