<?xml version="1.0" encoding="UTF-8" standalone="no"?>
<!-- Created with Inkscape (http://www.inkscape.org/) -->

<svg
   xmlns:dc="http://purl.org/dc/elements/1.1/"
   xmlns:cc="http://creativecommons.org/ns#"
   xmlns:rdf="http://www.w3.org/1999/02/22-rdf-syntax-ns#"
   xmlns:svg="http://www.w3.org/2000/svg"
   xmlns="http://www.w3.org/2000/svg"
   xmlns:sodipodi="http://sodipodi.sourceforge.net/DTD/sodipodi-0.dtd"
   xmlns:inkscape="http://www.inkscape.org/namespaces/inkscape"
   version="1.1"
   id="svg2"
   width="45"
   height="45"
   viewBox="0 0 45 45"
   sodipodi:docname="next.svg"
   inkscape:version="0.92.4 (5da689c313, 2019-01-14)">
  <metadata
     id="metadata8">
    <rdf:RDF>
      <cc:Work
         rdf:about="">
        <dc:format>image/svg+xml</dc:format>
        <dc:type
           rdf:resource="http://purl.org/dc/dcmitype/StillImage" />
        <dc:title />
      </cc:Work>
    </rdf:RDF>
  </metadata>
  <defs
     id="defs6" />
  <sodipodi:namedview
     pagecolor="#ffffff"
     bordercolor="#666666"
     borderopacity="1"
     objecttolerance="10"
     gridtolerance="10"
     guidetolerance="10"
     inkscape:pageopacity="0"
     inkscape:pageshadow="2"
     inkscape:window-width="1600"
     inkscape:window-height="877"
     id="namedview4"
     showgrid="false"
     inkscape:zoom="7.4167645"
     inkscape:cx="18.071638"
     inkscape:cy="16.434075"
     inkscape:window-x="-8"
     inkscape:window-y="-8"
     inkscape:window-maximized="1"
     inkscape:current-layer="svg2" />
  <ellipse
     style="opacity:1;vector-effect:none;fill:#ffffff;fill-opacity:1;fill-rule:evenodd;stroke:none;stroke-width:1.0838331;stroke-linecap:butt;stroke-linejoin:miter;stroke-miterlimit:4;stroke-dasharray:none;stroke-dashoffset:0;stroke-opacity:1"
     id="path834"
     cx="23.024363"
     cy="22.309322"
     rx="18.543432"
     ry="19.067797" />
  <ellipse
     style="opacity:1;vector-effect:none;fill:#ffffff;fill-opacity:0;fill-rule:evenodd;stroke:#000000;stroke-width:1.26647139;stroke-linecap:butt;stroke-linejoin:miter;stroke-miterlimit:4;stroke-dasharray:none;stroke-dashoffset:0;stroke-opacity:1"
     id="path817"
     cx="23.00852"
     cy="22.356991"
     rx="18.775707"
     ry="19.07757" />
  <path
     style="opacity:1;fill:#000000;fill-opacity:1;stroke:none;stroke-width:0.1004317;stroke-miterlimit:4;stroke-dasharray:none;stroke-opacity:1"
     d="M 21.063778,39.184265 C 16.83915,38.708844 12.820938,36.638962 10.128393,33.551174 6.0754586,28.903302 4.8065501,22.657937 6.7264118,16.807164 7.9183342,13.174782 10.642786,9.7370062 13.91266,7.7393865 19.4736,4.3421185 26.373051,4.4101882 31.840812,7.9162647 c 3.653088,2.3424593 6.460957,6.3897733 7.388777,10.6503243 1.028941,4.724892 0.0077,9.713229 -2.783307,13.595397 -2.658652,3.698058 -6.623995,6.159274 -11.094108,6.885907 -1.125095,0.182888 -3.269177,0.251072 -4.288396,0.136372 z"
     id="path826"
     inkscape:connector-curvature="0" />
  <path
     style="opacity:1;fill:#ffffff;fill-opacity:1;stroke:none;stroke-width:0.08637973;stroke-miterlimit:4;stroke-dasharray:none;stroke-opacity:1"
     d="m 14.638923,28.923292 c -0.619835,-0.254602 -0.595948,0.02179 -0.592887,-6.860266 0.0031,-6.904685 -0.03265,-6.526346 0.641524,-6.79355 0.503119,-0.199405 0.808657,-0.04359 1.97848,1.008933 0.559558,0.503452 1.31754,1.183707 1.684404,1.511677 0.366865,0.32797 1.036301,0.934918 1.487635,1.348772 1.495695,1.371491 2.25834,1.995461 2.4046,1.967366 0.1291,-0.02479 0.147963,-0.299175 0.186792,-2.71691 0.04841,-3.014342 0.02755,-2.920114 0.694979,-3.140382 0.300511,-0.09918 0.386132,-0.09583 0.639531,0.025 0.217005,0.103482 2.668845,2.212096 2.984477,2.566688 0.02375,0.02668 0.626253,0.571363 1.338885,1.210391 0.712632,0.639028 1.502495,1.357164 1.755248,1.595858 0.533265,0.503601 0.582953,0.52924 0.752669,0.388387 0.106498,-0.08839 0.126666,-0.547658 0.126666,-2.88461 0,-2.046653 0.02734,-2.80682 0.103655,-2.883144 0.06551,-0.06551 0.394372,-0.103657 0.8936,-0.103657 0.655582,0 0.814259,0.02688 0.9329,0.157966 0.130419,0.144111 0.142957,0.741473 0.142957,6.810612 0,6.335272 -0.0075,6.659464 -0.157965,6.795601 -0.195445,0.176876 -1.642523,0.208271 -1.811492,0.0393 -0.07626,-0.07626 -0.103655,-0.827676 -0.103655,-2.843466 0,-1.506897 -0.0236,-2.801297 -0.05243,-2.876446 -0.07674,-0.199985 -0.428955,-0.166699 -0.610742,0.05772 -0.08659,0.106895 -0.585013,0.579691 -1.107611,1.050659 -1.195485,1.077379 -4.201258,3.800745 -4.613444,4.179989 -0.476865,0.438754 -0.844183,0.569676 -1.237534,0.441092 -0.639542,-0.209062 -0.622483,-0.129388 -0.670692,-3.132467 l -0.04319,-2.690438 -0.192841,-0.02741 c -0.141871,-0.02016 -0.429424,0.185325 -1.087905,0.777418 -1.965421,1.767266 -3.496088,3.155888 -3.988417,3.618293 -1.157549,1.087194 -1.771582,1.555325 -2.020383,1.540311 -0.07651,-0.0046 -0.282526,-0.0673 -0.457811,-0.139302 z"
     id="path845"
     inkscape:connector-curvature="0" />
</svg>
