<?xml version="1.0" encoding="UTF-8" standalone="no"?>
<!-- Created with Inkscape (http://www.inkscape.org/) -->

<svg
   xmlns:dc="http://purl.org/dc/elements/1.1/"
   xmlns:cc="http://creativecommons.org/ns#"
   xmlns:rdf="http://www.w3.org/1999/02/22-rdf-syntax-ns#"
   xmlns:svg="http://www.w3.org/2000/svg"
   xmlns="http://www.w3.org/2000/svg"
   xmlns:sodipodi="http://sodipodi.sourceforge.net/DTD/sodipodi-0.dtd"
   xmlns:inkscape="http://www.inkscape.org/namespaces/inkscape"
   version="1.1"
   id="svg2"
   width="45"
   height="45"
   viewBox="0 0 45 45"
   sodipodi:docname="play.svg"
   inkscape:version="0.92.4 (5da689c313, 2019-01-14)">
  <metadata
     id="metadata8">
    <rdf:RDF>
      <cc:Work
         rdf:about="">
        <dc:format>image/svg+xml</dc:format>
        <dc:type
           rdf:resource="http://purl.org/dc/dcmitype/StillImage" />
        <dc:title />
      </cc:Work>
    </rdf:RDF>
  </metadata>
  <defs
     id="defs6" />
  <sodipodi:namedview
     pagecolor="#ffffff"
     bordercolor="#666666"
     borderopacity="1"
     objecttolerance="10"
     gridtolerance="10"
     guidetolerance="10"
     inkscape:pageopacity="0"
     inkscape:pageshadow="2"
     inkscape:window-width="1600"
     inkscape:window-height="877"
     id="namedview4"
     showgrid="false"
     inkscape:zoom="10.488889"
     inkscape:cx="2.61008"
     inkscape:cy="22.72567"
     inkscape:window-x="-8"
     inkscape:window-y="-8"
     inkscape:window-maximized="1"
     inkscape:current-layer="svg2" />
  <ellipse
     style="opacity:1;vector-effect:none;fill:#ffffff;fill-opacity:1;fill-rule:evenodd;stroke:none;stroke-width:0.99401093;stroke-linecap:butt;stroke-linejoin:miter;stroke-miterlimit:4;stroke-dasharray:none;stroke-dashoffset:0;stroke-opacity:1"
     id="path855"
     cx="22.976694"
     cy="22.070976"
     rx="18.877119"
     ry="18.73411" />
  <ellipse
     style="opacity:1;vector-effect:none;fill:#ffffff;fill-opacity:0;fill-rule:evenodd;stroke:#000000;stroke-width:1.26647139;stroke-linecap:butt;stroke-linejoin:miter;stroke-miterlimit:4;stroke-dasharray:none;stroke-dashoffset:0;stroke-opacity:1"
     id="path817"
     cx="23.00852"
     cy="22.356991"
     rx="18.775707"
     ry="19.07757" />
  <path
     style="opacity:1;fill:#000000;fill-opacity:1;stroke:none;stroke-width:0.08772072;stroke-miterlimit:4;stroke-dasharray:none;stroke-opacity:1"
     d="m 21.294676,39.255073 c -0.02189,-0.02189 -0.413341,-0.08446 -0.869897,-0.139064 C 19.39528,38.992895 18.221332,38.692349 16.963056,38.229767 14.49343,37.321852 12.472695,36.000421 10.647164,34.099577 9.573315,32.981428 9.3199435,32.667717 8.5758727,31.535022 6.2804491,28.040714 5.3350454,23.537219 6.0523093,19.513848 c 0.2455589,-1.377423 0.5733945,-2.604247 0.9259198,-3.464969 0.3379243,-0.825072 0.9985694,-2.212247 1.0862064,-2.280738 0.030869,-0.02412 0.164657,-0.241232 0.2973123,-0.482464 0.1326553,-0.241232 0.345873,-0.571316 0.4738175,-0.733519 0.1279435,-0.162204 0.3707854,-0.483446 0.5396482,-0.713873 0.5160323,-0.704168 0.8298245,-1.094979 0.9056315,-1.127914 0.03976,-0.01727 0.197655,-0.171445 0.350883,-0.342606 0.463157,-0.5173578 1.253578,-1.2224744 1.768664,-1.5777838 0.192333,-0.1326727 0.4568,-0.3347973 0.587705,-0.4491658 0.235478,-0.2057312 1.325662,-0.8831038 2.088963,-1.2979525 1.079917,-0.5869263 3.193334,-1.3105315 4.473757,-1.5317531 1.904788,-0.329096 2.258416,-0.3578287 3.81585,-0.3100418 2.238695,0.068685 4.072103,0.4583488 6.043724,1.2844873 1.233266,0.5167582 2.954554,1.4891174 3.371164,1.9043774 0.06407,0.063863 0.197121,0.1592655 0.295668,0.2120065 0.182593,0.097721 0.555652,0.403423 0.925303,0.7582356 0.113094,0.1085544 0.225627,0.1973716 0.250072,0.1973716 0.128643,0 1.628874,1.6525776 2.189936,2.4123206 0.356294,0.482463 0.688322,0.924883 0.737838,0.983156 0.04952,0.05827 0.09003,0.125613 0.09003,0.14965 0,0.02403 0.123976,0.252679 0.275502,0.508096 0.570687,0.961965 0.706287,1.238035 1.100914,2.241363 0.50008,1.271434 0.686275,1.92727 0.977321,3.442414 0.201159,1.047204 0.227066,1.397381 0.223896,3.026365 -0.0039,1.982826 -0.130018,2.926308 -0.620865,4.643052 -1.123551,3.929643 -3.718384,7.410996 -7.179078,9.631803 -1.594786,1.023409 -3.192838,1.706795 -5.304176,2.268258 -0.846486,0.225103 -2.758002,0.428183 -4.042463,0.429473 -0.75184,7.9e-4 -1.384889,-0.01653 -1.406776,-0.03842 z m -1.578261,-8.940268 c 0.174277,-0.118303 0.869506,-0.553018 1.544956,-0.966033 0.675449,-0.413014 1.267564,-0.782322 1.315811,-0.820687 0.04825,-0.03837 0.650229,-0.421397 1.33774,-0.851185 0.687511,-0.429788 1.250021,-0.813981 1.250021,-0.853763 0,-0.03979 0.04722,-0.07233 0.104935,-0.07233 0.05772,0 0.245218,-0.09181 0.416674,-0.204017 0.171455,-0.11221 0.548583,-0.358925 0.838062,-0.548255 0.289477,-0.18933 0.565798,-0.359958 0.614045,-0.379172 0.09332,-0.03716 1.117963,-0.674268 2.061436,-1.281758 1.230105,-0.792048 1.578172,-1.007905 1.62523,-1.007905 0.173852,0 1.013003,-0.741426 1.062541,-0.9388 0.101927,-0.40611 -0.139226,-0.644562 -1.548718,-1.531382 -0.747095,-0.470055 -1.614937,-1.016875 -1.928539,-1.215156 -2.33661,-1.47737 -3.838833,-2.4186 -4.495687,-2.816807 -0.422156,-0.255927 -0.767556,-0.496351 -0.767556,-0.534277 0,-0.03793 -0.04164,-0.06895 -0.09253,-0.06895 -0.05089,0 -0.325048,-0.157897 -0.609232,-0.350882 -0.284184,-0.192986 -0.542017,-0.350883 -0.572961,-0.350883 -0.03094,0 -0.220614,-0.114257 -0.421486,-0.253904 -0.905524,-0.629523 -2.144115,-1.346352 -2.398286,-1.387997 -0.219175,-0.03591 -0.32683,0.0025 -0.504394,0.18009 l -0.225746,0.225746 v 7.9467 7.946699 l 0.225746,0.225747 c 0.186188,0.186188 0.280535,0.216854 0.538412,0.175007 0.171965,-0.02791 0.455254,-0.147533 0.62953,-0.265838 z"
     id="path853"
     inkscape:connector-curvature="0" />
</svg>
