<?xml version="1.0" encoding="UTF-8" standalone="no"?>
<svg
   xmlns:dc="http://purl.org/dc/elements/1.1/"
   xmlns:cc="http://creativecommons.org/ns#"
   xmlns:rdf="http://www.w3.org/1999/02/22-rdf-syntax-ns#"
   xmlns:svg="http://www.w3.org/2000/svg"
   xmlns="http://www.w3.org/2000/svg"
   xmlns:sodipodi="http://sodipodi.sourceforge.net/DTD/sodipodi-0.dtd"
   xmlns:inkscape="http://www.inkscape.org/namespaces/inkscape"
   version="1.1"
   id="svg2"
   width="45"
   height="45"
   viewBox="0 0 45 45"
   sodipodi:docname="trash.svg"
   inkscape:version="1.0.1 (3bc2e813f5, 2020-09-07)">
  <metadata
     id="metadata8">
    <rdf:RDF>
      <cc:Work
         rdf:about="">
        <dc:format>image/svg+xml</dc:format>
        <dc:type
           rdf:resource="http://purl.org/dc/dcmitype/StillImage" />
        <dc:title />
      </cc:Work>
    </rdf:RDF>
  </metadata>
  <defs
     id="defs6" />
  <sodipodi:namedview
     pagecolor="#ffffff"
     bordercolor="#666666"
     borderopacity="1"
     objecttolerance="10"
     gridtolerance="10"
     guidetolerance="10"
     inkscape:pageopacity="0"
     inkscape:pageshadow="2"
     inkscape:window-width="1600"
     inkscape:window-height="877"
     id="namedview4"
     showgrid="false"
     inkscape:zoom="10.488889"
     inkscape:cx="28.108176"
     inkscape:cy="22.356728"
     inkscape:window-x="-8"
     inkscape:window-y="-8"
     inkscape:window-maximized="1"
     inkscape:current-layer="svg2"
     inkscape:document-rotation="0" />
  <ellipse
     style="opacity:1;vector-effect:none;fill:#ffffff;fill-opacity:1;fill-rule:evenodd;stroke:none;stroke-width:1.0838331;stroke-linecap:butt;stroke-linejoin:miter;stroke-miterlimit:4;stroke-dasharray:none;stroke-dashoffset:0;stroke-opacity:1"
     id="path834"
     cx="23.024363"
     cy="22.309322"
     rx="18.543432"
     ry="19.067797" />
  <ellipse
     style="opacity:1;vector-effect:none;fill:#ffffff;fill-opacity:0;fill-rule:evenodd;stroke:#000000;stroke-width:1.26647139;stroke-linecap:butt;stroke-linejoin:miter;stroke-miterlimit:4;stroke-dasharray:none;stroke-dashoffset:0;stroke-opacity:1"
     id="path817"
     cx="23.00852"
     cy="22.356991"
     rx="18.775707"
     ry="19.07757" />
  <path
     style="opacity:1;fill:#000000;fill-opacity:1;stroke:none;stroke-width:0.1004317;stroke-miterlimit:4;stroke-dasharray:none;stroke-opacity:1"
     d="M 21.063778,39.184265 C 16.83915,38.708844 12.820938,36.638962 10.128393,33.551174 6.0754586,28.903302 4.8065501,22.657937 6.7264118,16.807164 7.9183342,13.174782 10.642786,9.7370062 13.91266,7.7393865 19.4736,4.3421185 26.373051,4.4101882 31.840812,7.9162647 c 3.653088,2.3424593 6.460957,6.3897733 7.388777,10.6503243 1.028941,4.724892 0.0077,9.713229 -2.783307,13.595397 -2.658652,3.698058 -6.623995,6.159274 -11.094108,6.885907 -1.125095,0.182888 -3.269177,0.251072 -4.288396,0.136372 z"
     id="path826"
     inkscape:connector-curvature="0" />
  <g
     id="g46"
     transform="matrix(0.1041595,0,0,0.1041595,38.50851,17.407653)">
    <path
       style="fill:#ffffff;stroke-width:1.01919"
       d="m -204.42544,139.72348 c -0.081,-0.13098 -0.81619,-0.32173 -1.63387,-0.42389 -0.81768,-0.10217 -1.48669,-0.29837 -1.48669,-0.43601 0,-0.13764 -0.2427,-0.25025 -0.53932,-0.25025 -0.29663,0 -0.53932,-0.0965 -0.53932,-0.21438 0,-0.1179 -0.54806,-0.44038 -1.21791,-0.71662 -0.66986,-0.27623 -1.57885,-0.84717 -2.02,-1.26875 -0.44114,-0.42158 -0.91494,-0.76651 -1.0529,-0.76651 -0.447,0 -2.57081,-2.30541 -3.12506,-3.39227 -0.2965,-0.58141 -0.75144,-1.25336 -1.01098,-1.49323 -0.25955,-0.23986 -0.47191,-0.57357 -0.47191,-0.74156 0,-0.168 -0.12134,-0.30545 -0.26966,-0.30545 -0.14831,0 -0.26966,-0.24269 -0.26966,-0.53931 0,-0.29663 -0.11991,-0.53932 -0.26647,-0.53932 -0.14656,0 -0.34452,-0.48808 -0.43991,-1.08462 -0.0954,-0.59653 -0.27884,-1.14976 -0.40767,-1.22938 -0.12884,-0.0796 -0.23424,-0.56232 -0.23424,-1.07266 0,-0.51034 -0.12135,-0.92789 -0.26966,-0.92789 -0.17906,0 -0.26966,-22.60644 -0.26966,-67.280013 v -67.280013 h -4.89809 c -6.04493,0 -6.84755,-0.233268 -7.12301,-2.07021 -0.0961,-0.641136 -0.28725,-1.165702 -0.42468,-1.165702 -0.35165,0 -0.10586,-10.166074 0.30806,-12.741405 0.18474,-1.149423 0.44302,-2.08986 0.57396,-2.08986 0.13093,0 0.23806,-0.18202 0.23806,-0.404489 0,-0.222469 0.12135,-0.404489 0.26966,-0.404489 0.14832,0 0.26966,-0.242694 0.26966,-0.539319 0,-0.296625 0.12135,-0.539319 0.26966,-0.539319 0.14832,0 0.26966,-0.1885 0.26966,-0.418888 0,-0.525577 4.20482,-4.704639 4.73364,-4.704639 0.21444,0 0.38989,-0.115849 0.38989,-0.257441 0,-0.141592 0.42471,-0.337117 0.94381,-0.434499 0.51909,-0.09738 0.94381,-0.284902 0.94381,-0.416709 0,-0.131806 0.30336,-0.239648 0.67414,-0.239648 0.37079,0 0.67415,-0.121347 0.67415,-0.26966 0,-0.148312 0.54606,-0.269659 1.21347,-0.269659 0.66741,0 1.21347,-0.121347 1.21347,-0.269659 0,-0.17707 6.15722,-0.26966 17.93234,-0.26966 h 17.93235 v -5.377273 c 0,-3.293969 0.10448,-5.441839 0.26966,-5.54393 0.14831,-0.09166 0.26966,-0.759069 0.26966,-1.483126 0,-0.724058 0.10759,-1.382963 0.23909,-1.464234 0.1315,-0.08127 0.31902,-0.57382 0.41671,-1.094552 0.0977,-0.520733 0.29347,-0.946786 0.43506,-0.946786 0.14159,0 0.25744,-0.234516 0.25744,-0.521147 0,-0.286631 0.24269,-0.598175 0.53932,-0.69232 0.29662,-0.09414 0.53931,-0.400905 0.53931,-0.681689 0,-0.280783 0.18787,-0.666983 0.41748,-0.858221 0.22961,-0.191238 0.70948,-0.620736 1.06638,-0.954439 0.3569,-0.333704 0.77577,-0.606734 0.93082,-0.606734 0.15506,0 0.28192,-0.119035 0.28192,-0.264522 0,-0.145487 0.30337,-0.340662 0.67415,-0.433722 0.37078,-0.09306 0.67415,-0.277392 0.67415,-0.409627 0,-0.132234 0.24269,-0.240426 0.53931,-0.240426 0.29663,0 0.53932,-0.121347 0.53932,-0.269659 0,-0.148313 0.30337,-0.26966 0.67415,-0.26966 0.37078,0 0.67415,-0.121346 0.67415,-0.269659 0,-0.177438 7.10103,-0.269659 20.76377,-0.269659 13.66274,0 20.76377,0.09222 20.76377,0.269659 0,0.148313 0.36404,0.269659 0.80898,0.269659 0.44494,0 0.80898,0.121347 0.80898,0.26966 0,0.148312 0.18202,0.269659 0.40449,0.269659 0.22247,0 0.40449,0.121347 0.40449,0.26966 0,0.148312 0.19011,0.269659 0.42248,0.269659 1.11483,0 4.70104,3.586213 4.70104,4.701047 0,0.232364 0.12135,0.422481 0.26966,0.422481 0.14832,0 0.26966,0.18202 0.26966,0.404489 0,0.222469 0.12135,0.404489 0.26966,0.404489 0.14831,0 0.26966,0.36404 0.26966,0.808978 0,0.444938 0.12135,0.808978 0.26966,0.808978 0.17258,0 0.26966,2.426934 0.26966,6.741483 v 6.741484 h 18.06718 c 11.865008,0 18.067168,0.09257 18.067168,0.26966 0,0.148312 0.54606,0.269659 1.21347,0.269659 0.66741,0 1.21347,0.121347 1.21347,0.269659 0,0.148313 0.24434,0.26966 0.54298,0.26966 0.29864,0 0.75369,0.115468 1.01122,0.256596 0.25754,0.141128 0.9233,0.458321 1.47947,0.704874 0.55617,0.246552 1.01122,0.555798 1.01122,0.687211 0,0.131414 0.11577,0.238934 0.25727,0.238934 0.33955,0 3.78762,3.386682 3.78762,3.72018 0,0.14227 0.18202,0.409737 0.40449,0.59437 0.22247,0.184633 0.40449,0.563532 0.40449,0.841995 0,0.278467 0.097,0.506302 0.21549,0.506302 0.25263,0 0.86315,1.587086 0.86315,2.243835 0,0.249017 0.12134,0.452759 0.26966,0.452759 0.4259,0 0.36071,13.959275 -0.0674,14.436677 -1.62675,1.813977 -1.34398,1.742884 -6.93234,1.742884 h -5.13492 v 67.145183 c 0,37.94154 -0.10212,67.145183 -0.23481,67.145183 -0.12915,0 -0.31774,0.8415 -0.41909,1.87001 -0.10134,1.0285 -0.2687,1.90826 -0.37191,1.95503 -0.27095,0.12276 -1.67078,2.84914 -1.67078,3.25409 0,0.18788 -0.24269,0.49317 -0.53932,0.67841 -0.29662,0.18525 -0.53932,0.46387 -0.53932,0.61917 0,0.30873 -3.36042,3.75796 -3.6612,3.75796 -0.10208,0 -0.38185,0.21461 -0.62172,0.47692 -0.23986,0.2623 -0.95045,0.71735 -1.57908,1.01122 -0.62862,0.29387 -1.14435,0.62532 -1.14605,0.73655 -0.002,0.11124 -0.23862,0.20225 -0.52649,0.20225 -0.28788,0 -0.59623,0.11782 -0.68524,0.26184 -0.089,0.14401 -0.76629,0.34203 -1.505088,0.44003 -0.7388,0.098 -1.40838,0.28354 -1.48796,0.41231 -0.19253,0.31152 -102.50623,0.30751 -102.69877,-0.004 z m 102.04659,-7.04266 c 0,-0.14831 0.23839,-0.26966 0.52975,-0.26966 0.52888,0 2.837228,-1.17443 3.399018,-1.72933 0.16321,-0.16121 0.62015,-0.53428 1.01541,-0.82903 0.39527,-0.29474 0.71867,-0.64455 0.71867,-0.77734 0,-0.1328 0.21913,-0.4377 0.48697,-0.67756 0.80707,-0.7228 1.40064,-1.73299 1.40064,-2.38374 0,-0.33778 0.12135,-0.61415 0.26966,-0.61415 0.14831,0 0.26966,-0.35687 0.26966,-0.79306 0,-0.43618 0.12135,-0.86806 0.26966,-0.95972 0.14831,-0.0917 0.26966,-0.58421 0.26966,-1.09455 0,-0.51035 0.12159,-0.9279 0.2702,-0.9279 0.17995,0 0.24751,-22.000973 0.20225,-65.864293 l -0.068,-65.864303 -59.527308,-0.06802 -59.5273,-0.06801 v 67.129873 c 0,44.462363 0.0911,67.186133 0.26966,67.296523 0.14831,0.0917 0.26966,0.46286 0.26966,0.82489 0,0.36203 0.12134,0.65823 0.26966,0.65823 0.14831,0 0.26966,0.2427 0.26966,0.53932 0,0.29663 0.10819,0.53932 0.24042,0.53932 0.13224,0 0.31643,0.30282 0.40932,0.67294 0.0929,0.37011 0.81598,1.31055 1.60685,2.08986 1.90871,1.88081 2.17612,2.07426 3.13129,2.26529 0.44786,0.0896 0.81428,0.26903 0.81428,0.39881 0,0.12977 0.30337,0.23595 0.67415,0.23595 0.37078,0 0.67415,0.12135 0.67415,0.26966 0,0.17882 17.07842,0.26966 50.69596,0.26966 33.61753,0 50.69596,-0.0908 50.69596,-0.26966 z m 20.617798,-153.84067 c -0.008,-2.698767 -0.12285,-4.025124 -0.4029,-4.651624 -0.21547,-0.482016 -0.48348,-0.876393 -0.59559,-0.876393 -0.11211,0 -0.20383,-0.177117 -0.20383,-0.393595 0,-0.216477 -0.47878,-0.882047 -1.06396,-1.479046 -0.91025,-0.928637 -1.28035,-1.110883 -2.56177,-1.261488 -0.82379,-0.09682 -1.4978,-0.280678 -1.4978,-0.408569 0,-0.129631 -28.937788,-0.232533 -65.392398,-0.232533 -36.36007,0 -65.39239,0.103045 -65.39239,0.232099 0,0.127654 -0.63634,0.307463 -1.41408,0.399573 -0.77774,0.09211 -1.45526,0.291035 -1.5056,0.44205 -0.0503,0.151017 -0.20386,0.274575 -0.34116,0.274575 -0.43381,0 -1.86269,1.522119 -1.86269,1.984224 0,0.243491 -0.12135,0.44271 -0.26966,0.44271 -0.14831,0 -0.26966,0.18202 -0.26966,0.404489 0,0.222469 -0.10913,0.404489 -0.24251,0.404489 -0.56036,0 -1.06989,7.61802 -0.55133,8.242856 0.2781,0.335087 9.969,0.378095 71.94993,0.319328 l 71.628538,-0.06791 -0.0111,-3.775231 z m -48.932028,-22.861045 c 0,-6.519702 -0.0304,-6.719111 -1.20244,-7.891157 -1.2581,-1.258107 -0.27476,-1.202431 -21.23744,-1.202431 -18.03339,0 -19.71083,0.03793 -20.70377,0.468101 -0.59427,0.257456 -1.08049,0.62657 -1.08049,0.820254 0,0.193683 -0.24269,0.612652 -0.53932,0.931042 -0.50734,0.544566 -0.53932,0.951627 -0.53932,6.865037 v 6.286148 h 22.65139 22.65139 z"
       id="path24" />
    <path
       style="fill:#ffffff;stroke-width:2.03837"
       d="m -188.9216,108.15559 -1.19864,-0.83957 V 57.525657 c 0,-39.292666 0.14277,-49.9088546 0.67717,-50.3523616 1.37498,-1.141132 3.60736,-1.33176 4.98961,-0.426074 l 1.34436,0.880864 V 57.232977 c 0,48.885803 -0.0156,49.620523 -1.07863,50.683533 -1.29302,1.29301 -3.09894,1.38422 -4.73387,0.23908 z"
       id="path36" />
    <path
       style="fill:#ffffff;stroke-width:2.03837"
       d="m -157.12779,107.74692 -1.17264,-1.24823 V 57.320617 8.1425374 l 1.12917,-1.129177 c 0.91223,-0.912223 1.50805,-1.058414 3.10109,-0.760879 1.08454,0.202564 2.09325,0.488171 2.24156,0.634682 0.14831,0.146511 0.33408,22.6108836 0.41282,49.9208236 0.1267,43.941363 0.0477,49.800153 -0.68658,50.920803 -1.09262,1.66756 -3.4678,1.67613 -5.02542,0.0181 z"
       id="path38" />
    <path
       style="fill:#ffffff;stroke-width:2.03837"
       d="m -125.94722,107.24236 c -1.04437,-1.71289 -1.06856,-2.84543 -1.06276,-49.752163 0.005,-37.45236 0.15484,-48.2936586 0.68359,-49.3387026 0.98053,-1.937939 3.18117,-2.578471 4.92749,-1.434233 l 1.3901,0.910824 V 57.112977 c 0,54.590433 0.17092,51.882163 -3.27442,51.882163 -1.22107,0 -1.84601,-0.41118 -2.664,-1.75278 z"
       id="path40" />
  </g>
</svg>
