<?xml version="1.0" encoding="UTF-8" standalone="no"?>
<!-- Created with Inkscape (http://www.inkscape.org/) -->

<svg
   xmlns:dc="http://purl.org/dc/elements/1.1/"
   xmlns:cc="http://creativecommons.org/ns#"
   xmlns:rdf="http://www.w3.org/1999/02/22-rdf-syntax-ns#"
   xmlns:svg="http://www.w3.org/2000/svg"
   xmlns="http://www.w3.org/2000/svg"
   xmlns:sodipodi="http://sodipodi.sourceforge.net/DTD/sodipodi-0.dtd"
   xmlns:inkscape="http://www.inkscape.org/namespaces/inkscape"
   version="1.1"
   id="svg2"
   width="20"
   height="20"
   viewBox="0 0 20 20"
   sodipodi:docname="volume-up.svg"
   inkscape:version="0.92.4 (5da689c313, 2019-01-14)">
  <metadata
     id="metadata8">
    <rdf:RDF>
      <cc:Work
         rdf:about="">
        <dc:format>image/svg+xml</dc:format>
        <dc:type
           rdf:resource="http://purl.org/dc/dcmitype/StillImage" />
        <dc:title />
      </cc:Work>
    </rdf:RDF>
  </metadata>
  <defs
     id="defs6" />
  <sodipodi:namedview
     pagecolor="#ffffff"
     bordercolor="#666666"
     borderopacity="1"
     objecttolerance="10"
     gridtolerance="10"
     guidetolerance="10"
     inkscape:pageopacity="0"
     inkscape:pageshadow="2"
     inkscape:window-width="1600"
     inkscape:window-height="877"
     id="namedview4"
     showgrid="false"
     inkscape:zoom="11.8"
     inkscape:cx="-2.1567062"
     inkscape:cy="2.0049435"
     inkscape:window-x="-8"
     inkscape:window-y="-8"
     inkscape:window-maximized="1"
     inkscape:current-layer="svg2" />
  <path
     style="opacity:1;fill:#ffffff;fill-opacity:1;stroke:none;stroke-width:0.08474576;stroke-miterlimit:4;stroke-dasharray:none;stroke-opacity:1"
     d="M 8.5332314,16.416099 C 8.3187624,16.285328 6.4598674,14.9177 3.6639544,12.83367 l -0.550848,-0.410594 -1.334746,-8.47e-4 -1.33474498,-7.82e-4 V 9.497718 6.573989 l 1.37711798,-0.0034 1.377119,-0.0034 2.5,-1.871231 c 2.741484,-2.05198 2.939121,-2.189037 3.157269,-2.189502 0.140873,-3e-4 0.147641,0.372668 0.127119,7.005339 -0.01416,4.576029 -0.05107,7.015332 -0.106422,7.033561 -0.04661,0.01535 -0.200774,-0.04284 -0.342587,-0.12931 z"
     id="path823"
     inkscape:connector-curvature="0" />
  <path
     style="opacity:1;fill:#ffffff;fill-opacity:1;stroke:none;stroke-width:0.08474576;stroke-miterlimit:4;stroke-dasharray:none;stroke-opacity:1"
     d="m 11.140437,13.645455 c -0.326476,-0.228673 -0.257147,-0.675237 0.189331,-1.219526 0.490136,-0.59751 0.754215,-1.115505 0.936241,-1.836452 C 12.45894,9.825342 12.40137,8.691076 12.133174,7.972294 11.934293,7.439282 11.437792,6.644852 11.131885,6.370176 10.913629,6.174203 10.886623,5.634613 11.085135,5.436101 c 0.214363,-0.214363 0.506277,-0.247273 0.75394,-0.085 0.56928,0.373007 1.346272,1.679194 1.622756,2.727986 0.205279,0.77869 0.205331,2.081895 1.14e-4,2.859307 -0.217326,0.823281 -0.757425,1.830536 -1.275071,2.377939 -0.467905,0.494802 -0.703915,0.569031 -1.046436,0.32912 z"
     id="path825"
     inkscape:connector-curvature="0" />
  <path
     style="opacity:1;fill:#ffffff;fill-opacity:1;stroke:none;stroke-width:0.08474576;stroke-miterlimit:4;stroke-dasharray:none;stroke-opacity:1"
     d="m 13.090687,15.892926 c -0.227453,-0.09138 -0.385721,-0.454985 -0.307846,-0.707249 0.03047,-0.09872 0.214172,-0.351095 0.408219,-0.56084 0.883024,-0.954467 1.558582,-2.312357 1.832037,-3.682448 0.144,-0.721479 0.119116,-2.342723 -0.04689,-3.054841 C 14.68327,6.630913 13.915124,5.169817 13.106542,4.331246 12.712686,3.922783 12.663745,3.512797 12.978423,3.257985 c 0.33656,-0.272529 0.589919,-0.203631 1.068618,0.290599 0.564843,0.583168 1.034867,1.283059 1.462639,2.177947 0.65901,1.378636 0.917985,2.677239 0.841609,4.220164 -0.05446,1.100242 -0.246703,1.953279 -0.679336,3.014444 -0.441516,1.082953 -1.563449,2.671931 -2.065991,2.926034 -0.215162,0.108793 -0.257618,0.109267 -0.515278,0.0058 z"
     id="path827"
     inkscape:connector-curvature="0" />
  <path
     style="opacity:1;fill:#ffffff;fill-opacity:1;stroke:none;stroke-width:0.08474576;stroke-miterlimit:4;stroke-dasharray:none;stroke-opacity:1"
     d="m 15.385595,18.098031 c -0.209139,-0.08337 -0.36571,-0.33043 -0.36571,-0.577067 0,-0.09123 0.269535,-0.484622 0.598965,-0.874216 1.537054,-1.817761 2.296011,-3.483195 2.624417,-5.758946 C 18.429738,9.595614 18.256227,7.543506 17.860601,6.362124 17.275112,4.613778 16.627852,3.512895 15.383893,2.149653 14.961721,1.687 14.920595,1.411337 15.227898,1.104035 c 0.403188,-0.40318901 0.70478,-0.24546501 1.627837,0.85131 1.234948,1.467363 2.075394,3.273361 2.499425,5.370905 0.254157,1.257229 0.253048,3.161104 -0.0026,4.43442 -0.441483,2.199058 -1.490854,4.294379 -2.871143,5.732926 -0.596998,0.622196 -0.787585,0.727318 -1.095839,0.604435 z"
     id="path829"
     inkscape:connector-curvature="0" />
</svg>
